<?xml version="1.0" encoding="utf-8"?>
<!-- Generator: Adobe Illustrator 24.3.0, SVG Export Plug-In . SVG Version: 6.00 Build 0)  -->
<svg version="1.1" id="Layer_1" xmlns="http://www.w3.org/2000/svg" xmlns:xlink="http://www.w3.org/1999/xlink" x="0px" y="0px"
	 viewBox="0 0 595.28 841.89" style="enable-background:new 0 0 595.28 841.89;" xml:space="preserve">
<style type="text/css">
	.st0{fill:#FEFEFE;}
</style>
<g>
	<g>
		<path class="st0" d="M475.24,706.8c-8.94,0-15.29,0.45-21.54-0.11c-8.11-0.73-16.24-1.36-24.31-2.77
			c-4.74-0.83-9.55-1.51-14.31-2.3c-4.82-0.81-9.52-2.31-14.3-3.43c-9.62-2.25-18.88-5.67-28.21-8.84
			c-3.96-1.35-7.91-2.79-11.72-4.5c-14.66-6.56-28.94-13.77-42.42-22.64c-8.72-5.74-17.15-11.77-25.32-18.25
			c-5.26-4.18-10.2-8.66-15.22-13.1c-3.96-3.5-8.07-6.85-11.53-10.83c-7.12-8.18-14.49-16.13-21.04-24.84
			c-8.49-11.31-16.37-22.92-23.23-35.32c-6.26-11.32-11.68-22.92-16.39-34.96c-5.53-14.12-9.89-28.54-13.11-43.35
			c-1.81-8.31-2.89-16.71-4.23-25.08c-3.06-19.2-1.96-38.49-1.62-57.71c0.13-7.27,1.29-14.76,2.59-22.12
			c1.36-7.77,2.63-15.58,4.4-23.26c2.48-10.74,5.82-21.27,9.55-31.65c4.72-13.17,10.33-26,17.14-38.2
			c6.51-11.68,13.51-23.07,21.74-33.71c6.36-8.22,12.92-16.23,19.81-24.01c3.75-4.23,7.43-8.57,11.64-12.27
			c7.96-6.99,15.71-14.22,24.3-20.53c6.36-4.67,12.71-9.33,19.18-13.85c3.67-2.57,7.58-4.82,11.44-7.03
			c8.1-4.64,16.47-8.86,24.93-12.82c11.04-5.17,22.57-9.13,34.14-12.99c8.64-2.88,17.51-4.98,26.34-6.9
			c7.43-1.61,15.15-2.43,22.73-3.52c19.36-2.79,38.74-1.29,58.1-1.55c6.36-0.08,12.71,1.63,19.15,1.73c0.59,0.01,1.36,0,1.32,0.82
			c-0.06,1.21-1.17,0.99-1.91,1.11c-8.26,1.24-16.4,3.05-24.5,5.1c-20.47,5.17-40.18,12.46-58.85,22.27
			c-71.13,37.37-119.26,94.33-143.62,170.88c-11.97,37.62-15.37,76.31-10.84,115.64c7.91,68.77,36.94,127.2,86.57,175.23
			c32.9,31.83,71.55,54.23,115.48,67.38c11.6,3.47,23.31,6.36,35.29,8.2c0.85,0.13,2.63-0.29,2.38,1.37
			c-0.19,1.26-1.62,0.56-2.5,0.65C499.41,706.14,486.06,707.57,475.24,706.8z"/>
		<path class="st0" d="M152.7,437.65c0,88.63-0.02,177.26,0.07,265.89c0,3.18-0.59,4.36-4.03,4.15c-6.95-0.42-14.03,0.7-20.87-0.96
			c-7.18-1.75-14.07-4.38-20.27-8.64c-10.01-6.88-17.78-15.65-22.69-26.76c-2.91-6.58-4.87-13.43-4.87-20.79
			C80.08,480.07,80.08,309.6,80,139.13c0-3.24,0.67-4.28,4.09-4.19c9.94,0.26,19.88,0.04,29.82,0.11
			c9.8,0.07,18.09,3.81,25.23,10.45c5.52,5.13,9.91,10.98,11.97,18.3c0.79,2.82,1.64,5.62,1.64,8.69
			C152.69,260.88,152.7,349.26,152.7,437.65z"/>
	</g>
</g>
</svg>
